<svg width="16" height="6" viewBox="0 0 16 6" fill="none" xmlns="http://www.w3.org/2000/svg">
<path fill-rule="evenodd" clip-rule="evenodd" d="M0.454468 0.0484266C1.59182 -0.0704585 2.78006 0.0144425 3.83256 0.472811C4.71531 0.863213 5.42828 1.47433 5.97143 2.25525C6.37887 2.84945 6.6844 3.54535 6.87112 4.24137C6.90511 4.37719 6.93897 4.513 6.97296 4.64881C7.00694 4.80156 6.97296 4.93738 6.88806 5.05625C6.80316 5.17513 6.68439 5.24298 6.53151 5.25992C5.39416 5.3788 4.22286 5.2939 3.15342 4.83553C2.27067 4.44513 1.5577 3.83402 1.01455 3.05309C0.607113 2.45889 0.301587 1.76299 0.114858 1.06697C0.0808737 0.931154 0.0470079 0.79534 0.0130238 0.659534C-0.0209602 0.506783 0.0130237 0.370967 0.0979248 0.252094C0.182826 0.133327 0.301711 0.0654807 0.454468 0.0484266V0.0484266ZM3.98534 0.62568C2.38963 1.7121 3.47605 4.69977 3.47605 4.69977C5.44522 2.73059 3.98534 0.62568 3.98534 0.62568Z" fill="white"/>
<path fill-rule="evenodd" clip-rule="evenodd" d="M15.5286 0.0484266C14.3912 -0.0704585 13.2199 0.0144425 12.1505 0.472811C11.2848 0.863335 10.5548 1.47445 10.0286 2.25525C9.62112 2.84945 9.31559 3.54535 9.12886 4.24137C9.09488 4.37719 9.06102 4.513 9.02703 4.64881C8.99305 4.80156 9.02703 4.93738 9.11193 5.05625C9.19683 5.17513 9.3156 5.24298 9.46847 5.25992C10.6058 5.3788 11.7941 5.2939 12.8466 4.83553C13.7293 4.44513 14.4423 3.83402 14.9854 3.05309C15.3929 2.45889 15.6984 1.76299 15.8851 1.06697C15.9191 0.931154 15.953 0.79534 15.987 0.659534C16.0209 0.506783 15.987 0.370967 15.9021 0.252094C15.8002 0.133327 15.6813 0.0654807 15.5286 0.0484266H15.5286ZM11.9977 0.62568C13.5934 1.7121 12.507 4.69977 12.507 4.69977C10.5378 2.73059 11.9977 0.62568 11.9977 0.62568Z" fill="white"/>
</svg>
